<?xml version="1.0" encoding="UTF-8" standalone="no"?>
<!-- Created with Inkscape (http://www.inkscape.org/) -->

<svg
   xmlns:dc="http://purl.org/dc/elements/1.1/"
   xmlns:cc="http://creativecommons.org/ns#"
   xmlns:rdf="http://www.w3.org/1999/02/22-rdf-syntax-ns#"
   xmlns:svg="http://www.w3.org/2000/svg"
   xmlns="http://www.w3.org/2000/svg"
   xmlns:sodipodi="http://sodipodi.sourceforge.net/DTD/sodipodi-0.dtd"
   xmlns:inkscape="http://www.inkscape.org/namespaces/inkscape"
   width="210mm"
   height="297mm"
   viewBox="0 0 744.09448819 1052.3622047"
   id="svg2"
   version="1.1"
   inkscape:version="0.91 r13725"
   sodipodi:docname="AcherGirl_v02.svg">
  <defs
     id="defs4">
    <clipPath
       id="clipPath3430"
       clipPathUnits="userSpaceOnUse">
      <path
         style="clip-rule:evenodd"
         inkscape:connector-curvature="0"
         id="path3432"
         d="M 93.4138,265.5658 C 85.606,228.2953 85.034,194.593 61.6414,165.223 c 7.1744,-0.007 13.8996,1.0338 19.7767,4.0527 2.6824,-6.3014 0.508,-11.6924 -3.7284,-16.6969 4.5269,-5.1441 31.5689,13.303 32.7453,20.9114 3.5957,-6.5018 6.7853,-14.3858 0.9725,-24.4777 38.7834,2.1609 21.9031,16.2468 57.8713,23.0187 1.5449,38.2108 3.0895,76.4215 4.6344,114.6323 -26.8331,-7.0325 -53.6664,-14.0653 -80.4994,-21.0977" />
    </clipPath>
    <linearGradient
       id="linearGradient3434"
       spreadMethod="pad"
       gradientUnits="userSpaceOnUse"
       y2="159.47"
       x2="82.760002"
       y1="245.85001"
       x1="103.3">
      <stop
         id="stop3436"
         offset="0"
         style="stop-opacity:1;stop-color:#663300" />
      <stop
         id="stop3438"
         offset="1"
         style="stop-opacity:1;stop-color:#996633" />
    </linearGradient>
    <clipPath
       id="clipPath3448"
       clipPathUnits="userSpaceOnUse">
      <path
         style="clip-rule:evenodd"
         inkscape:connector-curvature="0"
         id="path3450"
         d="m 251.5657,247.7344 c 3.0351,-16.6158 11.1853,-36.1494 27.8822,-33.2314 -7.3486,-9.2939 -27.4822,-9.7452 -32.5829,-4.3767 -15.9463,16.7831 -20.9466,33.6453 -23.3433,59.006 -2.4922,26.3716 -1.6211,52.9543 -2.4315,79.4313 11.9418,-0.9187 23.8833,-1.8371 35.8251,-2.7558 -1.7833,-32.6911 -11.232,-65.867 -5.3496,-98.0734" />
    </clipPath>
    <linearGradient
       id="linearGradient3452"
       spreadMethod="pad"
       gradientUnits="userSpaceOnUse"
       y2="209.89999"
       x2="258.23999"
       y1="318.03"
       x1="237.7">
      <stop
         id="stop3454"
         offset="0"
         style="stop-opacity:1;stop-color:#663300" />
      <stop
         id="stop3456"
         offset="1"
         style="stop-opacity:1;stop-color:#996633" />
    </linearGradient>
    <clipPath
       id="clipPath3466"
       clipPathUnits="userSpaceOnUse">
      <path
         style="clip-rule:evenodd"
         inkscape:connector-curvature="0"
         id="path3468"
         d="m 86.2191,281.8701 c -3.035,-10.9905 -11.1852,-23.9111 -27.8821,-21.981 7.3485,-6.1475 27.4822,-6.446 32.5828,-2.895 15.9463,11.1013 20.9467,22.2548 23.3433,39.0296 2.4923,17.4436 1.6212,35.0266 2.4316,52.5399 -11.9418,-0.6077 -23.8833,-1.2152 -35.8251,-1.8229 1.7833,-21.6236 11.232,-43.5677 5.3495,-64.8706" />
    </clipPath>
    <linearGradient
       id="linearGradient3470"
       spreadMethod="pad"
       gradientUnits="userSpaceOnUse"
       y2="259.44"
       x2="74.610001"
       y1="333.44"
       x1="95.75">
      <stop
         id="stop3472"
         offset="0"
         style="stop-opacity:1;stop-color:#663300" />
      <stop
         id="stop3474"
         offset="1"
         style="stop-opacity:1;stop-color:#996633" />
    </linearGradient>
    <clipPath
       id="clipPath3548"
       clipPathUnits="userSpaceOnUse">
      <path
         style="clip-rule:evenodd"
         inkscape:connector-curvature="0"
         id="path3550"
         d="m 118.5126,325.1327 c 5.5139,0 9.9839,-4.4696 9.9839,-9.9839 0,-5.5139 -4.47,-9.9836 -9.9839,-9.9836 -5.514,0 -9.9839,4.4697 -9.9839,9.9836 0,5.5143 4.4699,9.9839 9.9839,9.9839" />
    </clipPath>
    <linearGradient
       id="linearGradient3552"
       spreadMethod="pad"
       gradientUnits="userSpaceOnUse"
       y2="323.39001"
       x2="117.18"
       y1="312.39999"
       x1="117.18">
      <stop
         id="stop3554"
         offset="0"
         style="stop-opacity:1;stop-color:#996633" />
      <stop
         id="stop3556"
         offset="1"
         style="stop-opacity:1;stop-color:#4a3600" />
    </linearGradient>
    <clipPath
       id="clipPath3564"
       clipPathUnits="userSpaceOnUse">
      <path
         style="clip-rule:evenodd"
         inkscape:connector-curvature="0"
         id="path3566"
         d="m 177.1061,324.5658 c -5.5139,0 -9.9839,-4.4697 -9.9839,-9.9839 0,-5.514 4.47,-9.9836 9.9839,-9.9836 5.5142,0 9.9839,4.4696 9.9839,9.9836 0,5.5142 -4.4697,9.9839 -9.9839,9.9839" />
    </clipPath>
    <linearGradient
       id="linearGradient3568"
       spreadMethod="pad"
       gradientUnits="userSpaceOnUse"
       y2="322.82999"
       x2="178.42999"
       y1="311.82999"
       x1="178.44">
      <stop
         id="stop3570"
         offset="0"
         style="stop-opacity:1;stop-color:#996633" />
      <stop
         id="stop3572"
         offset="1"
         style="stop-opacity:1;stop-color:#4a3600" />
    </linearGradient>
  </defs>
  <sodipodi:namedview
     id="base"
     pagecolor="#ffffff"
     bordercolor="#666666"
     borderopacity="1.0"
     inkscape:pageopacity="0.0"
     inkscape:pageshadow="2"
     inkscape:zoom="0.87205387"
     inkscape:cx="417.14286"
     inkscape:cy="464.28571"
     inkscape:document-units="px"
     inkscape:current-layer="layer1"
     showgrid="false"
     inkscape:window-width="1500"
     inkscape:window-height="937"
     inkscape:window-x="-8"
     inkscape:window-y="-8"
     inkscape:window-maximized="1" />
  <metadata
     id="metadata7">
    <rdf:RDF>
      <cc:Work
         rdf:about="">
        <dc:format>image/svg+xml</dc:format>
        <dc:type
           rdf:resource="http://purl.org/dc/dcmitype/StillImage" />
        <dc:title></dc:title>
      </cc:Work>
    </rdf:RDF>
  </metadata>
  <g
     inkscape:label="Layer 1"
     inkscape:groupmode="layer"
     id="layer1">
    <path
       d="m 364.96109,599.42673 c 10.31199,1.15825 27.44887,7.89413 20.06537,34.06462 -7.38387,26.17051 -22.095,54.26076 -32.40675,53.10251 -10.31212,-1.15838 -15.22175,-38.26951 -11.81375,-62.33988 3.408,-24.07075 13.84338,-25.98562 24.15513,-24.82725 z"
       style="fill:#336699;fill-opacity:1;fill-rule:evenodd;stroke:#000000;stroke-width:3.54325008;stroke-linecap:butt;stroke-linejoin:miter;stroke-miterlimit:22.92558479;stroke-dasharray:none;stroke-opacity:1"
       id="path3346"
       inkscape:connector-curvature="0" />
    <path
       d="m 355.31858,671.86673 c 9.0525,0 24.68488,3.01263 21.50613,21.2595 -1.43963,8.26337 -6.27588,13.365 -8.53575,20.27587 -2.73088,8.35013 -3.4725,17.73888 -12.97037,17.646 -17.35938,-0.16937 -17.83488,-24.4335 -17.83488,-40.776 0,-16.34237 8.78288,-18.40537 17.83488,-18.40537 z"
       style="fill:#336699;fill-opacity:1;fill-rule:evenodd;stroke:#000000;stroke-width:3.54325008;stroke-linecap:butt;stroke-linejoin:miter;stroke-miterlimit:22.92558479;stroke-dasharray:none;stroke-opacity:1"
       id="path3348"
       inkscape:connector-curvature="0" />
    <path
       d="m 405.12659,599.07835 c -10.73338,1.27138 -28.56225,8.19813 -20.829,34.30601 7.73325,26.10775 23.09812,54.05637 33.8315,52.78499 10.73337,-1.27137 15.779,-38.46087 12.18862,-62.51 -3.5905,-24.0495 -14.45775,-25.85225 -25.19112,-24.581 z"
       style="fill:#336699;fill-opacity:1;fill-rule:evenodd;stroke:#000000;stroke-width:3.54325008;stroke-linecap:butt;stroke-linejoin:miter;stroke-miterlimit:22.92558479;stroke-dasharray:none;stroke-opacity:1"
       id="path3350"
       inkscape:connector-curvature="0" />
    <path
       d="m 417.36234,671.86673 c -9.0525,0 -24.68488,3.01225 -21.50613,21.2595 1.43962,8.263 6.27587,13.36462 8.53587,20.27587 2.73075,8.35013 3.47238,17.73888 12.97026,17.646 17.35937,-0.16937 17.83487,-24.4335 17.83487,-40.776 0,-16.34237 -8.78288,-18.40537 -17.83487,-18.40537 z"
       style="fill:#336699;fill-opacity:1;fill-rule:evenodd;stroke:#000000;stroke-width:3.54325008;stroke-linecap:butt;stroke-linejoin:miter;stroke-miterlimit:22.92558479;stroke-dasharray:none;stroke-opacity:1"
       id="path3352"
       inkscape:connector-curvature="0" />
    <path
       d="m 355.83809,656.47785 c 9.736,0 17.62862,6.14125 17.62862,13.71688 0,7.5755 -7.89262,13.71675 -17.62862,13.71675 -9.73601,0 -17.62863,-6.14125 -17.62863,-13.71675 0,-7.57563 7.89262,-13.71688 17.62863,-13.71688 z"
       style="fill:#336699;fill-opacity:1;fill-rule:evenodd;stroke:#000000;stroke-width:3.54325008;stroke-linecap:butt;stroke-linejoin:miter;stroke-miterlimit:22.92558479;stroke-dasharray:none;stroke-opacity:1"
       id="path3354"
       inkscape:connector-curvature="0" />
    <path
       d="m 355.68184,652.02423 c 5.26174,0 9.52762,3.3035 9.52762,7.37825 0,4.07513 -4.26588,7.37863 -9.52762,7.37863 -5.26188,0 -9.52763,-3.3035 -9.52763,-7.37863 0,-4.07475 4.26575,-7.37825 9.52763,-7.37825"
       style="fill:#336699;fill-opacity:1;fill-rule:evenodd;stroke:none"
       id="path3356"
       inkscape:connector-curvature="0" />
    <path
       d="m 412.89496,656.47785 c 9.73588,0 17.62863,6.14125 17.62863,13.71688 0,7.5755 -7.89275,13.71675 -17.62863,13.71675 -9.736,0 -17.62875,-6.14125 -17.62875,-13.71675 0,-7.57563 7.89275,-13.71688 17.62875,-13.71688 z"
       style="fill:#336699;fill-opacity:1;fill-rule:evenodd;stroke:#000000;stroke-width:3.54325008;stroke-linecap:butt;stroke-linejoin:miter;stroke-miterlimit:22.92558479;stroke-dasharray:none;stroke-opacity:1"
       id="path3358"
       inkscape:connector-curvature="0" />
    <path
       d="m 414.74446,652.02423 c 5.26188,0 9.52762,3.3035 9.52762,7.37825 0,4.07513 -4.26574,7.37863 -9.52762,7.37863 -5.26175,0 -9.5275,-3.3035 -9.5275,-7.37863 0,-4.07475 4.26575,-7.37825 9.5275,-7.37825"
       style="fill:#336699;fill-opacity:1;fill-rule:evenodd;stroke:none"
       id="path3360"
       inkscape:connector-curvature="0" />
    <path
       d="m 414.74446,673.03961 c 7.85063,0 14.21512,3.30337 14.21512,7.37825 0,4.07512 -6.36449,7.37862 -14.21512,7.37862 -7.8505,0 -14.215,-3.3035 -14.215,-7.37862 0,-4.07488 6.3645,-7.37825 14.215,-7.37825"
       style="fill:#336699;fill-opacity:1;fill-rule:evenodd;stroke:none"
       id="path3362"
       inkscape:connector-curvature="0" />
    <g
       id="g3364"
       transform="matrix(1.25,0,0,-1.25,165.16246,777.73973)">
      <path
         d="m 257.1945,48.1618 c 26.6879,0 30.0288,-17.7812 35.7239,-27.3566 5.4162,-9.1066 7.1257,-16.314 -11.1181,-18.8048 -11.0882,-1.514 -40.9714,0.398 -52.6742,0.398 -26.9277,0 -40.369,-2.8602 -39.903,9.9071 0.1559,4.2752 2.6733,22.822 9.4686,27.271 4.5317,-2.7389 11.4814,-3.0181 15.5965,-0.182 9.5422,6.5775 30.2261,8.7673 42.9063,8.7673 z"
         style="fill:#ba865b;fill-opacity:1;fill-rule:evenodd;stroke:#000000;stroke-width:2.83459997;stroke-linecap:butt;stroke-linejoin:miter;stroke-miterlimit:22.92558479;stroke-dasharray:none;stroke-opacity:1"
         id="path3366"
         inkscape:connector-curvature="0" />
      <path
         d="m 258.0316,51.3445 c 28.2585,0 34.876,-12.8197 37.8266,-23.6066 2.3451,-8.5731 3.2743,-15.6419 -11.7728,-18.8048 -11.5668,-2.4313 -43.3829,0.398 -55.7748,0.398 -28.5123,0 -40.032,-1.052 -39.5388,11.7156 0.1653,4.2752 0.1179,21.0135 7.3131,25.4625 4.7985,-2.7389 12.1578,-3.0181 16.5147,-0.182 10.1041,6.5772 32.0051,5.0173 45.432,5.0173 z"
         style="fill:#996633;fill-opacity:1;fill-rule:evenodd;stroke:#000000;stroke-width:2.83459997;stroke-linecap:butt;stroke-linejoin:miter;stroke-miterlimit:22.92558479;stroke-dasharray:none;stroke-opacity:1"
         id="path3368"
         inkscape:connector-curvature="0" />
      <path
         d="m 264.7826,54.9785 c -4.1843,-2.0418 -8.3685,-4.0839 -12.553,-6.1254 1.406,-2.054 2.8117,-4.1079 4.2177,-6.1619 -3.8906,-0.9241 -7.7811,-1.8479 -11.6717,-2.772 1.4689,-2.861 2.9378,-5.7218 4.4068,-8.5825 -3.8092,0.267 -7.6201,0.5344 -11.4302,0.8017 0.692,-3.4257 1.3839,-6.8519 2.0758,-10.2776 -14.9969,2.2887 -41.915,11.1855 -48.9061,18.6778 1.1225,1.6239 -0.1667,7.541 3.272,6.6537 10.6875,-2.7575 16.7834,-1.1834 19.7745,1.3632 0.502,0.4277 0.9173,0.8833 1.2515,1.3501 16.4716,6.7071 32.6906,7.9677 49.5627,5.0729 z"
         style="fill:#a77433;fill-opacity:1;fill-rule:evenodd;stroke:#000000;stroke-width:2.83459997;stroke-linecap:butt;stroke-linejoin:miter;stroke-miterlimit:22.92558479;stroke-dasharray:none;stroke-opacity:1"
         id="path3370"
         inkscape:connector-curvature="0" />
      <path
         d="m 200.0676,32.8263 c 3.4985,0 6.3346,-3.403 6.3346,-7.6008 0,-4.1975 -2.8361,-7.6005 -6.3346,-7.6005 -3.4985,0 -6.3346,3.403 -6.3346,7.6005 0,4.1978 2.8361,7.6008 6.3346,7.6008 z"
         style="fill:#990000;fill-opacity:1;fill-rule:evenodd;stroke:#000000;stroke-width:2.83459997;stroke-linecap:butt;stroke-linejoin:miter;stroke-miterlimit:22.92558479;stroke-dasharray:none;stroke-opacity:1"
         id="path3372"
         inkscape:connector-curvature="0" />
      <path
         d="m 275.0247,45.3433 c 7.8599,-1.6813 14.2316,-7.2615 14.2316,-12.464 0,-5.2024 -6.3717,-1.0941 -14.2316,0.5874 -7.8599,1.6815 -14.2316,0.2993 -14.2316,5.5017 0,5.2025 6.3717,8.0564 14.2316,6.3749"
         style="fill:#ac8359;fill-opacity:1;fill-rule:evenodd;stroke:none"
         id="path3374"
         inkscape:connector-curvature="0" />
      <path
         d="m 220.119,13.2724 -13.6876,7.8216 m 13.6876,0 -13.6876,-7.8216"
         style="fill:none;stroke:#000000;stroke-width:2.83459997;stroke-linecap:butt;stroke-linejoin:miter;stroke-miterlimit:22.92558479;stroke-dasharray:none;stroke-opacity:1"
         id="path3376"
         inkscape:connector-curvature="0" />
      <path
         d="m 236.577,13.2724 -13.6877,7.8216 m 13.6877,0 -13.6877,-7.8216"
         style="fill:none;stroke:#000000;stroke-width:2.83459997;stroke-linecap:butt;stroke-linejoin:miter;stroke-miterlimit:22.92558479;stroke-dasharray:none;stroke-opacity:1"
         id="path3378"
         inkscape:connector-curvature="0" />
      <path
         d="m 253.0349,13.2724 -13.6876,7.8216 m 13.6876,0 -13.6876,-7.8216"
         style="fill:none;stroke:#000000;stroke-width:2.83459997;stroke-linecap:butt;stroke-linejoin:miter;stroke-miterlimit:22.92558479;stroke-dasharray:none;stroke-opacity:1"
         id="path3380"
         inkscape:connector-curvature="0" />
      <path
         d="m 269.4929,13.2724 -13.6877,7.8216 m 13.6877,0 -13.6877,-7.8216"
         style="fill:none;stroke:#000000;stroke-width:2.83459997;stroke-linecap:butt;stroke-linejoin:miter;stroke-miterlimit:22.92558479;stroke-dasharray:none;stroke-opacity:1"
         id="path3382"
         inkscape:connector-curvature="0" />
      <path
         d="m 285.9508,13.2724 -13.6876,7.8216 m 13.6876,0 -13.6876,-7.8216"
         style="fill:none;stroke:#000000;stroke-width:2.83459997;stroke-linecap:butt;stroke-linejoin:miter;stroke-miterlimit:22.92558479;stroke-dasharray:none;stroke-opacity:1"
         id="path3384"
         inkscape:connector-curvature="0" />
    </g>
    <g
       id="g3386"
       transform="matrix(1.25,0,0,-1.25,165.16246,777.73973)">
      <path
         d="m 96.6084,48.1618 c -26.6879,0 -30.0288,-17.7812 -35.7239,-27.3566 -5.4162,-9.1066 -7.1257,-16.314 11.1181,-18.8048 11.0882,-1.514 40.9714,0.398 52.6742,0.398 26.9277,0 40.369,-2.8602 39.903,9.9071 -0.1559,4.2752 -2.6733,22.822 -9.4686,27.271 -4.5317,-2.7389 -11.4814,-3.0181 -15.5965,-0.182 -9.5422,6.5775 -30.2261,8.7673 -42.9063,8.7673 z"
         style="fill:#ba865b;fill-opacity:1;fill-rule:evenodd;stroke:#000000;stroke-width:2.83459997;stroke-linecap:butt;stroke-linejoin:miter;stroke-miterlimit:22.92558479;stroke-dasharray:none;stroke-opacity:1"
         id="path3388"
         inkscape:connector-curvature="0" />
      <path
         d="m 95.7713,51.3445 c -28.2585,0 -34.876,-12.8197 -37.8266,-23.6066 -2.3451,-8.5731 -3.2743,-15.6419 11.7728,-18.8048 11.5668,-2.4313 43.3829,0.398 55.7748,0.398 28.5123,0 40.032,-1.052 39.5388,11.7156 -0.1653,4.2752 -0.1179,21.0135 -7.3131,25.4625 -4.7985,-2.7389 -12.1578,-3.0181 -16.5147,-0.182 -10.1041,6.5772 -32.0051,5.0173 -45.432,5.0173 z"
         style="fill:#996633;fill-opacity:1;fill-rule:evenodd;stroke:#000000;stroke-width:2.83459997;stroke-linecap:butt;stroke-linejoin:miter;stroke-miterlimit:22.92558479;stroke-dasharray:none;stroke-opacity:1"
         id="path3390"
         inkscape:connector-curvature="0" />
      <path
         d="m 89.0203,54.9785 c 4.1843,-2.0418 8.3685,-4.0839 12.553,-6.1254 -1.406,-2.054 -2.8117,-4.1079 -4.2177,-6.1619 3.8906,-0.9241 7.7811,-1.8479 11.6717,-2.772 -1.4689,-2.861 -2.9379,-5.7218 -4.4068,-8.5825 3.8092,0.267 7.6201,0.5344 11.4302,0.8017 -0.692,-3.4257 -1.3839,-6.8519 -2.0758,-10.2776 14.9969,2.2887 41.915,11.1855 48.9061,18.6778 -1.1225,1.6239 0.1667,7.541 -3.272,6.6537 -10.6875,-2.7575 -16.7834,-1.1834 -19.7745,1.3632 -0.502,0.4277 -0.9173,0.8833 -1.2515,1.3501 -16.4716,6.7071 -32.6906,7.9677 -49.5627,5.0729 z"
         style="fill:#a77433;fill-opacity:1;fill-rule:evenodd;stroke:#000000;stroke-width:2.83459997;stroke-linecap:butt;stroke-linejoin:miter;stroke-miterlimit:22.92558479;stroke-dasharray:none;stroke-opacity:1"
         id="path3392"
         inkscape:connector-curvature="0" />
      <path
         d="m 153.7353,32.8263 c -3.4985,0 -6.3346,-3.403 -6.3346,-7.6008 0,-4.1975 2.8361,-7.6005 6.3346,-7.6005 3.4985,0 6.3346,3.403 6.3346,7.6005 0,4.1978 -2.8361,7.6008 -6.3346,7.6008 z"
         style="fill:#990000;fill-opacity:1;fill-rule:evenodd;stroke:#000000;stroke-width:2.83459997;stroke-linecap:butt;stroke-linejoin:miter;stroke-miterlimit:22.92558479;stroke-dasharray:none;stroke-opacity:1"
         id="path3394"
         inkscape:connector-curvature="0" />
      <path
         d="M 78.7782,45.3433 C 70.9183,43.662 64.5466,38.0818 64.5466,32.8793 c 0,-5.2024 6.3717,-1.0941 14.2316,0.5874 7.8599,1.6815 14.2316,0.2993 14.2316,5.5017 0,5.2025 -6.3717,8.0564 -14.2316,6.3749"
         style="fill:#ac8359;fill-opacity:1;fill-rule:evenodd;stroke:none"
         id="path3396"
         inkscape:connector-curvature="0" />
      <path
         d="m 133.6839,13.2724 13.6876,7.8216 m -13.6876,0 13.6876,-7.8216"
         style="fill:none;stroke:#000000;stroke-width:2.83459997;stroke-linecap:butt;stroke-linejoin:miter;stroke-miterlimit:22.92558479;stroke-dasharray:none;stroke-opacity:1"
         id="path3398"
         inkscape:connector-curvature="0" />
      <path
         d="m 117.2259,13.2724 13.6877,7.8216 m -13.6877,0 13.6877,-7.8216"
         style="fill:none;stroke:#000000;stroke-width:2.83459997;stroke-linecap:butt;stroke-linejoin:miter;stroke-miterlimit:22.92558479;stroke-dasharray:none;stroke-opacity:1"
         id="path3400"
         inkscape:connector-curvature="0" />
      <path
         d="m 100.768,13.2724 13.6876,7.8216 m -13.6876,0 13.6876,-7.8216"
         style="fill:none;stroke:#000000;stroke-width:2.83459997;stroke-linecap:butt;stroke-linejoin:miter;stroke-miterlimit:22.92558479;stroke-dasharray:none;stroke-opacity:1"
         id="path3402"
         inkscape:connector-curvature="0" />
      <path
         d="m 84.31,13.2724 13.6877,7.8216 m -13.6877,0 13.6877,-7.8216"
         style="fill:none;stroke:#000000;stroke-width:2.83459997;stroke-linecap:butt;stroke-linejoin:miter;stroke-miterlimit:22.92558479;stroke-dasharray:none;stroke-opacity:1"
         id="path3404"
         inkscape:connector-curvature="0" />
      <path
         d="m 67.8521,13.2724 13.6876,7.8216 m -13.6876,0 13.6876,-7.8216"
         style="fill:none;stroke:#000000;stroke-width:2.83459997;stroke-linecap:butt;stroke-linejoin:miter;stroke-miterlimit:22.92558479;stroke-dasharray:none;stroke-opacity:1"
         id="path3406"
         inkscape:connector-curvature="0" />
    </g>
    <g
       id="g3408"
       transform="matrix(1.25,0,0,-1.25,165.16246,777.73973)">
      <path
         d="m 243.2373,348.2209 c 2.5908,1.7538 8.0733,-1.0698 14.72,-6.2045 -0.4601,-2.7626 -0.7722,-4.8506 -0.5128,-4.4472 0.4246,0.6613 2.4293,1.4085 3.7522,1.8428 5.307,-4.4226 11.1317,-9.9791 16.7179,-15.6773 l -5.6406,-10.0338 9.7886,5.7342 c 3.4392,-3.6224 6.7022,-7.1989 9.5998,-10.478 l -11.3653,-4.0317 12.8781,0.003 c 0,0 0.5173,0.2738 1.3553,0.7421 3.8726,-4.4971 6.7949,-8.1496 8.1371,-10.133 6.5313,-9.6494 4.5269,-22.4121 -4.477,-28.5066 -6.5583,-4.4388 -15.0206,-4.1145 -21.6576,0.1176 l 2.7057,6.7542 -4.6885,-5.3278 c -1.6815,1.3581 -3.2029,2.9943 -4.4884,4.8935 -0.7906,1.1676 -1.9162,3.0628 -3.2649,5.4952 l 7.2762,5.6489 -9.6369,-1.2733 c -3.0359,5.7668 -6.7037,13.2131 -10.2056,21.0053 0.8855,1.0641 2.3967,2.7519 3.1946,2.9055 0.5131,0.0989 -1.9715,0.6673 -5.0692,1.3402 -7.7723,17.9133 -13.9425,36.366 -9.1187,39.6309 z"
         style="fill:#000000;fill-opacity:1;fill-rule:evenodd;stroke:#000000;stroke-width:2.83459997;stroke-linecap:butt;stroke-linejoin:miter;stroke-miterlimit:22.92558479;stroke-dasharray:none;stroke-opacity:1"
         id="path3410"
         inkscape:connector-curvature="0" />
      <path
         d="m 243.2373,348.2209 c 2.5908,1.7538 8.0733,-1.0698 14.72,-6.2045 -0.4601,-2.7626 -0.7722,-4.8506 -0.5128,-4.4472 0.4246,0.6613 2.4293,1.4085 3.7522,1.8428 5.307,-4.4226 11.1317,-9.9791 16.7179,-15.6773 l -5.6406,-10.0338 9.7886,5.7342 c 3.4392,-3.6224 6.7022,-7.1989 9.5998,-10.478 l -11.3653,-4.0317 12.8781,0.003 c 0,0 0.5173,0.2738 1.3553,0.7421 2.8788,-3.3429 5.2321,-6.2192 6.8023,-8.2899 L 287.0155,284.091 c -0.5989,0.9967 -19.4573,-6.5004 -20.2186,-5.1276 l 7.2762,5.6489 -9.6369,-1.2733 c -3.0359,5.7668 -6.7037,13.2131 -10.2056,21.0053 0.8855,1.0641 2.3967,2.7519 3.1946,2.9055 0.5131,0.0989 -1.9715,0.6673 -5.0692,1.3402 -7.7723,17.9133 -13.9425,36.366 -9.1187,39.6309 z"
         style="fill:#ffffff;fill-opacity:1;fill-rule:evenodd;stroke:#000000;stroke-width:2.83459997;stroke-linecap:butt;stroke-linejoin:miter;stroke-miterlimit:22.92558479;stroke-dasharray:none;stroke-opacity:1"
         id="path3412"
         inkscape:connector-curvature="0" />
      <path
         d="m 237.7369,353.969 c 2.0024,-0.1601 47.6856,-68.4941 47.6856,-68.4941"
         style="fill:none;stroke:#000000;stroke-width:2.83459997;stroke-linecap:butt;stroke-linejoin:miter;stroke-miterlimit:22.92558479;stroke-dasharray:none;stroke-opacity:1"
         id="path3414"
         inkscape:connector-curvature="0" />
    </g>
    <g
       id="g3416"
       transform="matrix(1.25,0,0,-1.25,165.16246,777.73973)">
      <path
         d="m 237.9042,332.6655 c 2.9009,1.171 7.6691,-2.7397 13.0906,-9.1545 -1.0289,-2.6044 -1.7725,-4.5805 -1.4343,-4.2406 0.5539,0.5576 2.6711,0.8677 4.0552,1.0148 4.2617,-5.4374 8.7909,-12.0923 13.0576,-18.8354 l -7.6201,-8.6275 10.7736,3.5532 c 2.6028,-4.263 5.0431,-8.4444 7.1884,-12.2587 l -11.9583,-1.5579 12.5921,-2.6983 c 0,0 0.5635,0.159 1.4808,0.4414 2.8432,-5.2096 4.9343,-9.3941 5.8306,-11.6147 4.362,-10.8048 -0.2752,-22.8634 -10.3572,-26.9331 -7.3435,-2.9645 -15.5495,-0.8722 -21.151,4.6579 l 4.062,6.0363 -5.7016,-4.2256 c -1.3592,1.6807 -2.5035,3.5995 -3.3621,5.726 -0.5279,1.3076 -1.2308,3.3968 -2.0396,6.0579 l 8.2996,3.9969 -9.6897,0.7767 c -1.7589,6.275 -3.7828,14.3251 -5.572,22.6786 1.0887,0.8546 2.9205,2.188 3.7329,2.171 0.5224,-0.0113 -1.7878,1.0658 -4.6752,2.3735 -3.8418,19.1452 -6.0038,38.4817 -0.6023,40.6621 z"
         style="fill:#000000;fill-opacity:1;fill-rule:evenodd;stroke:#000000;stroke-width:2.83459997;stroke-linecap:butt;stroke-linejoin:miter;stroke-miterlimit:22.92558479;stroke-dasharray:none;stroke-opacity:1"
         id="path3418"
         inkscape:connector-curvature="0" />
      <path
         d="m 237.9042,332.6655 c 2.9009,1.171 7.6691,-2.7397 13.0906,-9.1545 -1.0289,-2.6044 -1.7725,-4.5805 -1.4343,-4.2406 0.5539,0.5576 2.6711,0.8677 4.0552,1.0148 4.2617,-5.4374 8.7909,-12.0923 13.0576,-18.8354 l -7.6201,-8.6275 10.7736,3.5532 c 2.6028,-4.263 5.0431,-8.4444 7.1884,-12.2587 l -11.9583,-1.5579 12.5921,-2.6983 c 0,0 0.5635,0.159 1.4808,0.4414 2.1135,-3.8727 3.8115,-7.1788 4.9119,-9.5327 l -16.7862,-9.9904 c -0.3767,1.1001 -20.3879,-2.274 -20.8446,-0.7722 l 8.2996,3.9969 -9.6897,0.7767 c -1.7589,6.275 -3.7828,14.3251 -5.572,22.6786 1.0887,0.8546 2.9205,2.188 3.7329,2.171 0.5224,-0.0113 -1.7878,1.0658 -4.6752,2.3735 -3.8418,19.1452 -6.0038,38.4817 -0.6023,40.6621 z"
         style="fill:#ffffff;fill-opacity:1;fill-rule:evenodd;stroke:#000000;stroke-width:2.83459997;stroke-linecap:butt;stroke-linejoin:miter;stroke-miterlimit:22.92558479;stroke-dasharray:none;stroke-opacity:1"
         id="path3420"
         inkscape:connector-curvature="0" />
      <path
         d="m 233.7318,339.4395 c 1.9242,-0.5766 32.2566,-76.9731 32.2566,-76.9731"
         style="fill:none;stroke:#000000;stroke-width:2.83459997;stroke-linecap:butt;stroke-linejoin:miter;stroke-miterlimit:22.92558479;stroke-dasharray:none;stroke-opacity:1"
         id="path3422"
         inkscape:connector-curvature="0" />
    </g>
    <path
       d="m 466.85421,445.78248 c 9.75962,46.58812 10.47462,88.716 39.7155,125.4285 -8.96813,0.009 -17.37463,-1.29225 -24.721,-5.06587 -3.353,7.87674 -0.635,14.61549 4.6605,20.87112 -5.65863,6.43013 -39.46113,-16.62875 -40.9315,-26.13925 -4.49475,8.12725 -8.48163,17.98225 -1.21575,30.59712 -48.47913,-2.70112 -27.37875,-20.3085 -72.33913,-28.77337 -1.93112,-47.7635 -3.86187,-95.52688 -5.79287,-143.29038 33.54125,8.79063 67.08287,17.58163 100.62425,26.37213 z"
       style="fill:#663300;fill-opacity:1;fill-rule:evenodd;stroke:#000000;stroke-width:3.54325008;stroke-linecap:butt;stroke-linejoin:miter;stroke-miterlimit:22.92558479;stroke-dasharray:none;stroke-opacity:1"
       id="path3424"
       inkscape:connector-curvature="0" />
    <g
       id="g3426"
       transform="matrix(1.25,0,0,-1.25,165.16246,777.73973)">
      <g
         id="g3428"
         clip-path="url(#clipPath3430)">
        <path
           d="M 93.4138,265.5658 C 85.606,228.2953 85.034,194.593 61.6414,165.223 c 7.1744,-0.007 13.8996,1.0338 19.7767,4.0527 2.6824,-6.3014 0.508,-11.6924 -3.7284,-16.6969 4.5269,-5.1441 31.5689,13.303 32.7453,20.9114 3.5957,-6.5018 6.7853,-14.3858 0.9725,-24.4777 38.7834,2.1609 21.9031,16.2468 57.8713,23.0187 1.5449,38.2108 3.0895,76.4215 4.6344,114.6323 -26.8331,-7.0325 -53.6664,-14.0653 -80.4994,-21.0977"
           style="fill:url(#linearGradient3434);fill-rule:evenodd;stroke:none"
           id="path3440"
           inkscape:connector-curvature="0" />
      </g>
    </g>
    <path
       d="m 281.92971,445.78248 c -9.75975,46.58812 -10.47475,88.716 -39.7155,125.4285 8.968,0.009 17.3745,-1.29225 24.72088,-5.06587 3.353,7.87674 0.63499,14.61549 -4.66051,20.87112 5.65863,6.43013 39.46113,-16.62875 40.93163,-26.13925 4.49462,8.12725 8.48162,17.98225 1.21562,30.59712 48.47926,-2.70112 27.37888,-20.3085 72.33913,-28.77337 1.93113,-47.7635 3.86187,-95.52688 5.793,-143.29038 -33.54138,8.79063 -67.083,17.58163 -100.62425,26.37213 z"
       style="fill:none;stroke:#000000;stroke-width:3.54325008;stroke-linecap:butt;stroke-linejoin:miter;stroke-miterlimit:22.92558479;stroke-dasharray:none;stroke-opacity:1"
       id="path3442"
       inkscape:connector-curvature="0" />
    <g
       id="g3444"
       transform="matrix(1.25,0,0,-1.25,165.16246,777.73973)">
      <g
         id="g3446"
         clip-path="url(#clipPath3448)">
        <path
           d="m 251.5657,247.7344 c 3.0351,-16.6158 11.1853,-36.1494 27.8822,-33.2314 -7.3486,-9.2939 -27.4822,-9.7452 -32.5829,-4.3767 -15.9463,16.7831 -20.9466,33.6453 -23.3433,59.006 -2.4922,26.3716 -1.6211,52.9543 -2.4315,79.4313 11.9418,-0.9187 23.8833,-1.8371 35.8251,-2.7558 -1.7833,-32.6911 -11.232,-65.867 -5.3496,-98.0734"
           style="fill:url(#linearGradient3452);fill-rule:evenodd;stroke:none"
           id="path3458"
           inkscape:connector-curvature="0" />
      </g>
    </g>
    <path
       d="m 479.61959,468.07173 c 3.79387,20.76975 13.98162,45.18675 34.85275,41.53925 -9.18575,11.61737 -34.35275,12.1815 -40.72863,5.47088 -19.93288,-20.97888 -26.18325,-42.05663 -29.17912,-73.7575 -3.11525,-32.9645 -2.02638,-66.19288 -3.03938,-99.28913 14.92725,1.14838 29.85413,2.29638 44.78138,3.44475 -2.22913,40.86388 -14.04,82.33375 -6.687,122.59175 z"
       style="fill:none;stroke:#000000;stroke-width:3.54325008;stroke-linecap:butt;stroke-linejoin:miter;stroke-miterlimit:22.92558479;stroke-dasharray:none;stroke-opacity:1"
       id="path3460"
       inkscape:connector-curvature="0" />
    <g
       id="g3462"
       transform="matrix(1.25,0,0,-1.25,165.16246,777.73973)">
      <g
         id="g3464"
         clip-path="url(#clipPath3466)">
        <path
           d="m 86.2191,281.8701 c -3.035,-10.9905 -11.1852,-23.9111 -27.8821,-21.981 7.3485,-6.1475 27.4822,-6.446 32.5828,-2.895 15.9463,11.1013 20.9467,22.2548 23.3433,39.0296 2.4923,17.4436 1.6212,35.0266 2.4316,52.5399 -11.9418,-0.6077 -23.8833,-1.2152 -35.8251,-1.8229 1.7833,-21.6236 11.232,-43.5677 5.3495,-64.8706"
           style="fill:url(#linearGradient3470);fill-rule:evenodd;stroke:none"
           id="path3476"
           inkscape:connector-curvature="0" />
      </g>
    </g>
    <path
       d="m 272.93633,425.4021 c -3.79375,13.73813 -13.9815,29.88888 -34.85262,27.47626 9.18562,7.68437 34.35275,8.05749 40.7285,3.61875 19.93288,-13.87663 26.18337,-27.81851 29.17912,-48.78701 3.11538,-21.8045 2.0265,-43.78324 3.03951,-65.67487 -14.92726,0.75963 -29.85413,1.519 -44.78138,2.27862 2.22912,27.02951 14.04,54.45963 6.68687,81.08825 z"
       style="fill:none;stroke:#000000;stroke-width:3.54325008;stroke-linecap:butt;stroke-linejoin:miter;stroke-miterlimit:22.92558479;stroke-dasharray:none;stroke-opacity:1"
       id="path3478"
       inkscape:connector-curvature="0" />
    <path
       d="m 328.40759,500.58686 c 4.45462,7.08199 8.49612,21.60775 -13.5595,32.01099 -22.05538,10.40276 -49.19288,17.34588 -53.64713,10.26426 -4.45462,-7.08176 18.96975,-31.40613 37.52863,-43.07988 18.55837,-11.67387 25.22337,-6.277 29.678,0.80463 z"
       style="fill:#e9c6af;fill-opacity:1;fill-rule:evenodd;stroke:#000000;stroke-width:3.54325008;stroke-linecap:butt;stroke-linejoin:miter;stroke-miterlimit:22.92558479;stroke-dasharray:none;stroke-opacity:1"
       id="path3480"
       inkscape:connector-curvature="0" />
    <path
       d="m 444.68083,511.58985 c 7.424,-3.85687 22.23325,-6.68975 30.78675,16.1465 8.55351,22.83663 13.24063,50.45313 5.81638,54.31013 -7.424,3.85688 -29.739,-21.4895 -39.84662,-40.94513 -10.10763,-19.45587 -4.18076,-25.65462 3.24349,-29.51149 z"
       style="fill:#e9c6af;fill-opacity:1;fill-rule:evenodd;stroke:#000000;stroke-width:3.54325008;stroke-linecap:butt;stroke-linejoin:miter;stroke-miterlimit:22.92558479;stroke-dasharray:none;stroke-opacity:1"
       id="path3482"
       inkscape:connector-curvature="0" />
    <path
       d="m 196.97571,546.27111 c 1.28475,8.26687 7.7655,21.88099 31.23563,15.26025 23.46987,-6.62025 48.50437,-19.18588 47.21949,-27.45313 -1.28437,-8.26687 -34.92175,-11.25388 -56.58662,-7.88713 -21.66475,3.36688 -23.15338,11.81313 -21.8685,20.08001 z"
       style="fill:#e9c6af;fill-opacity:1;fill-rule:evenodd;stroke:#000000;stroke-width:3.54325008;stroke-linecap:butt;stroke-linejoin:miter;stroke-miterlimit:22.92558479;stroke-dasharray:none;stroke-opacity:1"
       id="path3484"
       inkscape:connector-curvature="0" />
    <path
       d="m 480.18271,644.3736 c 8.34438,-0.60062 22.44537,-5.93937 17.77812,-29.87437 -4.66725,-23.935 -15.13137,-49.9185 -23.47587,-49.31825 -8.34475,0.60025 -14.08887,33.87787 -12.51525,55.74612 1.57325,21.86825 9.86812,24.04663 18.213,23.4465 z"
       style="fill:#e9c6af;fill-opacity:1;fill-rule:evenodd;stroke:#000000;stroke-width:3.54325008;stroke-linecap:butt;stroke-linejoin:miter;stroke-miterlimit:22.92558479;stroke-dasharray:none;stroke-opacity:1"
       id="path3486"
       inkscape:connector-curvature="0" />
    <path
       d="m 465.52683,507.73548 c 6.66676,5.36137 3.81826,19.96863 -6.36199,32.62675 -10.17988,12.6585 -23.8365,18.57337 -30.50325,13.212 -6.66638,-5.36138 -17.47425,-53.027 -7.29388,-65.68512 10.17988,-12.65813 37.49275,14.48462 44.15912,19.84637 z"
       style="fill:#ffffff;fill-opacity:1;fill-rule:evenodd;stroke:#000000;stroke-width:3.54325008;stroke-linecap:butt;stroke-linejoin:miter;stroke-miterlimit:22.92558479;stroke-dasharray:none;stroke-opacity:1"
       id="path3488"
       inkscape:connector-curvature="0" />
    <path
       d="m 311.78421,489.39886 c -8.28212,2.142 -11.69938,16.627 -7.63238,32.35362 4.06738,15.72625 14.07826,26.7385 22.36075,24.5965 8.2825,-2.14188 37.75288,-41.13312 33.68588,-56.85975 -4.06738,-15.72625 -40.13188,-2.23225 -48.41425,-0.0904 z"
       style="fill:#ffffff;fill-opacity:1;fill-rule:evenodd;stroke:#000000;stroke-width:3.54325008;stroke-linecap:butt;stroke-linejoin:miter;stroke-miterlimit:22.92558479;stroke-dasharray:none;stroke-opacity:1"
       id="path3490"
       inkscape:connector-curvature="0" />
    <path
       d="m 435.07921,577.90886 c 0,37.85325 -21.21988,28.65087 -47.83325,29.36524 -26.61338,0.71425 -48.54187,-2.57987 -48.54187,-26.77862 0,-51.50725 -10.87513,-17.36675 -10.87513,-52.6205 0,-29.66 26.443,-54.41538 59.06263,-55.29087 32.61975,-0.87525 59.06275,22.46024 59.06275,52.12062 0,35.25375 -10.87513,15.351 -10.87513,53.20413 z"
       style="fill:#ffffff;fill-opacity:1;fill-rule:evenodd;stroke:#000000;stroke-width:3.54325008;stroke-linecap:butt;stroke-linejoin:miter;stroke-miterlimit:22.92558479;stroke-dasharray:none;stroke-opacity:1"
       id="path3492"
       inkscape:connector-curvature="0" />
    <path
       d="m 339.84046,588.79435 c 33.7205,4.24976 63.53463,2.91075 92.25,0 0,5.86063 0,11.72126 0,17.58188 -31.185,2.76625 -62.06538,3.59325 -92.25,0 0,-5.86062 0,-11.72125 0,-17.58188 z"
       style="fill:#990000;fill-opacity:1;fill-rule:evenodd;stroke:#000000;stroke-width:3.54325008;stroke-linecap:butt;stroke-linejoin:miter;stroke-miterlimit:22.92558479;stroke-dasharray:none;stroke-opacity:1"
       id="path3494"
       inkscape:connector-curvature="0" />
    <path
       d="m 355.68184,673.03961 c 7.85049,0 14.21499,3.30337 14.21499,7.37825 0,4.07512 -6.36449,7.37862 -14.21499,7.37862 -7.8505,0 -14.21501,-3.3035 -14.21501,-7.37862 0,-4.07488 6.3645,-7.37825 14.21501,-7.37825"
       style="fill:#336699;fill-opacity:1;fill-rule:evenodd;stroke:none"
       id="path3496"
       inkscape:connector-curvature="0" />
    <path
       d="m 350.11421,484.97823 c 3.67338,16.22025 11.75213,29.3985 34.24825,40.47837 18.3025,-8.213 29.59687,-22.42587 35.8685,-44.088"
       style="fill:none;stroke:#000000;stroke-width:3.54325008;stroke-linecap:butt;stroke-linejoin:miter;stroke-miterlimit:22.92558479;stroke-dasharray:none;stroke-opacity:1"
       id="path3498"
       inkscape:connector-curvature="0" />
    <path
       d="m 383.97021,519.57435 c 4.54812,0 8.235,3.73076 8.235,8.33313 0,4.6025 -3.68688,8.33325 -8.235,8.33325 -4.54825,0 -8.235,-3.73075 -8.235,-8.33325 0,-4.60237 3.68675,-8.33313 8.235,-8.33313 z"
       style="fill:#ff0000;fill-opacity:1;fill-rule:evenodd;stroke:#000000;stroke-width:3.54325008;stroke-linecap:butt;stroke-linejoin:miter;stroke-miterlimit:22.92558479;stroke-dasharray:none;stroke-opacity:1"
       id="path3500"
       inkscape:connector-curvature="0" />
    <path
       d="m 387.01071,534.68086 c 4.27712,1.54637 6.47637,6.30787 4.91175,10.63637 -0.3405,15.55787 -28.2455,30.972 -33.49,15.93675 9.65237,-0.80113 18.36675,-6.43712 18.00075,-21.5355 1.56475,-4.32825 6.3,-6.5835 10.5775,-5.03762 z"
       style="fill:#ffffba;fill-opacity:1;fill-rule:evenodd;stroke:#000000;stroke-width:3.54325008;stroke-linecap:butt;stroke-linejoin:miter;stroke-miterlimit:22.92558479;stroke-dasharray:none;stroke-opacity:1"
       id="path3502"
       inkscape:connector-curvature="0" />
    <path
       d="m 382.77183,313.11123 c 11.60288,0 27.58363,10.42362 35.18675,27.2735 7.60326,16.84987 3.32338,40.13012 3.32338,65.8435 0,25.71413 4.2795,48.99437 -3.32338,65.84387 -7.60312,16.8495 -23.58387,35.96738 -35.18675,35.96738 -11.60287,0 -22.10775,-19.1175 -29.711,-35.96738 -7.60325,-16.8495 -3.71375,-40.12974 -3.71375,-65.84387 0,-25.71338 -3.88987,-48.99363 3.71375,-65.8435 7.60325,-16.8505 18.10813,-27.2735 29.711,-27.2735 z"
       style="fill:#deaa87;fill-opacity:1;fill-rule:evenodd;stroke:#000000;stroke-width:3.54325008;stroke-linecap:butt;stroke-linejoin:miter;stroke-miterlimit:22.92558479;stroke-dasharray:none;stroke-opacity:1"
       id="path3504"
       inkscape:connector-curvature="0" />
    <path
       d="m 359.16246,289.68385 c 25.82637,0 61.397,10.42375 78.32125,27.27363 16.9235,16.84975 7.39662,40.13 7.39662,65.8435 0,25.71412 9.5265,48.99437 -7.39662,65.84387 -16.92363,16.8495 -52.49488,35.96738 -78.32125,35.96738 -25.8265,0 -49.20913,-19.11763 -66.133,-35.96738 -16.92325,-16.8495 -8.26587,-40.12975 -8.26587,-65.84387 0,-25.7135 -8.65775,-48.99375 8.26587,-65.8435 16.92425,-16.85063 40.3065,-27.27363 66.133,-27.27363 z"
       style="fill:#deaa87;fill-opacity:1;fill-rule:evenodd;stroke:#000000;stroke-width:3.54325008;stroke-linecap:butt;stroke-linejoin:miter;stroke-miterlimit:22.92558479;stroke-dasharray:none;stroke-opacity:1"
       id="path3506"
       inkscape:connector-curvature="0" />
    <path
       d="m 353.15621,289.68385 c 11.88813,0 26.28488,3.21625 39.10175,8.95713 -24.48,-0.361 -49.0305,0.0507 -74.81625,1.50563 10.6735,-6.68126 22.82387,-10.46276 35.7145,-10.46276 z m 71.62537,72.24601 c -0.54874,6.29362 -1.09699,12.82737 -1.09699,19.52925 0,25.34387 7.8385,48.2885 -6.08563,64.89525 -13.92513,16.6065 -43.19287,35.44912 -64.44275,35.44912 -21.25,0 -40.48913,-18.84225 -54.41463,-35.44912 -13.92412,-16.60675 -6.801,-39.55138 -6.801,-64.89525 0,-6.513 -0.47025,-12.86688 -0.933,-18.996 12.59188,-0.393 22.133,7.16662 34.65963,7.45762 4.37813,0.10125 1.42575,-7.37938 5.85487,-7.53813 11.1735,-0.40037 19.9025,-0.38825 32.64813,-0.44537 1.255,-0.005 2.13762,45.09462 3.39588,45.09138 18.5,-0.0499 27.47162,-51.58875 57.21549,-45.09875"
       style="fill:#e9c6af;fill-opacity:1;fill-rule:evenodd;stroke:none"
       id="path3508"
       inkscape:connector-curvature="0" />
    <path
       d="m 359.38071,257.6761 c 9.35925,-7.29487 31.32212,-9.84862 41.23375,-8.62962 21.09975,2.59475 62.95575,10.13587 77.97225,30.93225 4.1,5.6785 6.36775,11.92225 6.36775,18.47562 0,6.55363 -2.26775,12.797 -6.36775,18.4755 -4.09988,5.67813 -10.0335,10.79288 -17.36463,15.087 -7.33112,4.2945 -16.06112,7.7705 -25.75487,10.17213 -9.69375,2.40162 -62.90513,3.73 -74.09238,3.73 -11.18762,0 -21.84587,-1.328 -31.54,-3.73 -9.69375,-2.402 -18.4235,-5.87763 -25.75487,-10.17213 -7.3315,-4.2945 -13.26475,-9.40887 -17.36475,-15.087 -4.09988,-5.6785 -6.36763,-11.92187 -6.36763,-18.4755 0,-6.55337 2.26738,-12.79712 6.36763,-18.47562 4.1,-5.6785 10.03325,-10.7925 17.36475,-15.087 7.33112,-4.2945 16.06175,-7.7705 25.75487,-10.17175 9.69375,-2.40138 18.52438,-6.16213 29.54588,2.95612 z"
       style="fill:#663300;fill-opacity:1;fill-rule:evenodd;stroke:#000000;stroke-width:3.54325008;stroke-linecap:butt;stroke-linejoin:miter;stroke-miterlimit:22.92558479;stroke-dasharray:none;stroke-opacity:1"
       id="path3510"
       inkscape:connector-curvature="0" />
    <path
       d="m 301.79383,350.33223 23.30963,5.7405 c 0.78762,0.19413 1.54238,0.15088 1.94425,0.7395 0.26713,0.39075 0.0775,1.6965 -0.0872,2.17238 -0.30787,0.88862 -0.14813,1.73975 -0.456,3.67225 -0.19838,1.24512 -0.82988,1.1665 -0.82988,1.1665 l -30.7945,-7.7425 c -1.31,-0.3295 -7.82012,8.24775 -7.1235,7.19712 l 6.48113,-11.7255 2.165,-1.32087 c 0,0 4.0425,0.0205 5.39112,0.101 l 0,-3.8e-4 z"
       style="fill:#000000;fill-opacity:1;fill-rule:evenodd;stroke:none"
       id="path3512"
       inkscape:connector-curvature="0" />
    <path
       d="m 398.05446,351.04085 -23.30925,5.7405 c -0.78813,0.19425 -1.54275,0.151 -1.94463,0.73951 -0.26712,0.39087 -0.0776,1.69649 0.0875,2.17237 0.308,0.88875 0.14776,1.73975 0.45613,3.67238 0.19838,1.24512 0.82975,1.16637 0.82975,1.16637 l 30.79425,-7.7425 c 1.31025,-0.3295 7.82037,8.24775 7.12375,7.19725 l -6.481,-11.7255 -2.165,-1.321 c 0,0 -4.04287,0.0206 -5.3915,0.101 l 0,-3.7e-4 z"
       style="fill:#000000;fill-opacity:1;fill-rule:evenodd;stroke:none"
       id="path3514"
       inkscape:connector-curvature="0" />
    <path
       d="m 309.33921,370.18248 c 5.68675,0.0284 13.286,0.29313 16.65212,3.7485 2.30925,2.3705 1.9985,7.87712 2.14838,11.04238 0.1595,3.3775 0.839,12.8045 -2.36025,13.88512 -4.9695,1.6785 -10.63087,0.87625 -16.1245,0.8175 -9.58463,-0.10175 -16.8155,-7.42787 -17.1825,-15.27875 -0.3675,-7.85063 7.279,-14.26287 16.86675,-14.21475"
       style="fill:#ffffff;fill-opacity:1;fill-rule:evenodd;stroke:none"
       id="path3516"
       inkscape:connector-curvature="0" />
    <path
       d="m 390.50896,370.89123 c -5.68625,0.0283 -13.28562,0.293 -16.65212,3.74838 -2.30913,2.3705 -1.99838,7.87712 -2.14788,11.04237 -0.1595,3.3775 -0.83912,12.8045 2.35975,13.88525 4.9695,1.67837 10.63137,0.87625 16.12462,0.81738 9.58463,-0.10163 16.81538,-7.42788 17.18288,-15.27875 0.36712,-7.85051 -7.27938,-14.26288 -16.86725,-14.21463"
       style="fill:#ffffff;fill-opacity:1;fill-rule:evenodd;stroke:none"
       id="path3518"
       inkscape:connector-curvature="0" />
    <path
       d="m 291.12558,372.95911 c 0,0 0.26613,-0.22363 0.71688,-0.539 0.80962,-0.5665 2.216,-1.43038 3.75025,-1.83188 1.89913,-0.49675 4.70125,-1.56225 7.18725,-1.676 2.25025,-0.10275 5.94313,-0.51625 8.146,-0.41388 1.47687,0.0688 4.10488,0.45251 6.75888,1.017 4.27924,0.91125 8.596,2.65426 8.66162,5.46051 0.0773,3.31662 0.48437,6.12787 -0.50925,2.62524 -0.17538,-0.61825 -2.46537,-3.66262 -3.36788,-4.23349 -3.17437,-2.00801 -8.44337,-2.35101 -14.20149,-2.35101 -5.64425,0 -10.43513,2.74363 -13.41213,6.33651 -2.66362,3.21412 -3.81438,7.35124 -3.81438,6.86124 0,-0.49 -0.69425,-2.9275 -0.67437,-5.4705 0.0224,-2.83925 0.75862,-5.78474 0.75862,-5.78474"
       style="fill:#000000;fill-opacity:1;fill-rule:evenodd;stroke:none"
       id="path3520"
       inkscape:connector-curvature="0" />
    <path
       d="m 299.89421,361.27436 c 0.33525,2.44875 2.78437,5.28724 4.1415,6.06462 l 1.5845,0.9075 c 1.3575,0.77737 0.58712,1.95912 -1.18838,1.95912 -1.77599,0 -3.68224,-0.89612 -4.14149,-2.39137 l -0.72426,-2.13175 -0.10125,-0.5555 c 0,0 -0.006,-0.26513 0.005,-0.56275 0.0531,-1.3245 0.22788,-4.72637 0.42413,-3.28987 l -3.7e-4,0 z"
       style="fill:#000000;fill-opacity:1;fill-rule:evenodd;stroke:none"
       id="path3522"
       inkscape:connector-curvature="0" />
    <path
       d="m 296.73046,367.70323 c 0.92975,1.119 2.481,1.65725 2.481,1.65725 l -0.36,0.8025 c -0.663,1.47725 -0.63537,4.39838 -1.78625,4.39838 -1.1505,0 -1.176,-1.55588 -2.369,-4.39838 -0.771,-1.83675 -0.49962,-4.77213 -0.73237,-7.17262 -0.1545,-1.59138 1.8815,3.64775 2.76662,4.71262 l 0,2.5e-4 z"
       style="fill:#000000;fill-opacity:1;fill-rule:evenodd;stroke:none"
       id="path3524"
       inkscape:connector-curvature="0" />
    <path
       d="m 290.20434,370.25123 c 1.29937,1.08112 1.62987,1.361 3.76862,1.60088 l 0,0.567 c 0,1.564 -0.88725,4.24912 -2.4955,4.24912 -1.60863,0 -2.96887,-2.72275 -3.3105,-4.24912 l -1.42588,-6.37263 c -0.3415,-1.5265 2.22663,3.17613 3.46288,4.20475 l 3.8e-4,0 z"
       style="fill:#000000;fill-opacity:1;fill-rule:evenodd;stroke:none"
       id="path3526"
       inkscape:connector-curvature="0" />
    <path
       d="m 287.77971,376.29361 c 1.51937,0.74137 1.90662,0.93437 4.0415,0.65912 l 0.13462,0.55062 c 0.372,1.51975 0.14838,4.33875 -1.41375,4.72113 -1.56262,0.38225 -3.531,-1.93925 -4.22549,-3.341 l -2.90013,-5.85112 c -0.6945,-1.40163 2.91825,2.55587 4.36325,3.26125"
       style="fill:#000000;fill-opacity:1;fill-rule:evenodd;stroke:none"
       id="path3528"
       inkscape:connector-curvature="0" />
    <path
       d="m 307.81246,398.80923 c 8.89863,1.20825 18.19388,0.51625 17.5985,0.74087 -1.14475,0.43275 -8.56412,1.97613 -17.39012,0.95963 -8.82601,-1.01625 -15.28226,-4.83138 -15.147,-6.27063 0.135,-1.43962 6.13037,3.37425 14.93862,4.57013"
       style="fill:#000000;fill-opacity:1;fill-rule:evenodd;stroke:none"
       id="path3530"
       inkscape:connector-curvature="0" />
    <path
       d="m 407.35846,373.08348 c 0,0 -0.26612,-0.22363 -0.71675,-0.539 -0.80963,-0.56688 -2.216,-1.43075 -3.75025,-1.83188 -1.89925,-0.49675 -4.70125,-1.56262 -7.18725,-1.676 -2.25037,-0.10275 -5.94325,-0.51625 -8.14613,-0.41425 -1.47674,0.0688 -4.10524,0.45251 -6.75887,1.01738 -4.27925,0.911 -8.596,2.65425 -8.6615,5.46025 -0.0773,3.31687 -0.48475,6.12775 0.50912,2.6255 0.17538,-0.61863 2.46538,-3.66262 3.36788,-4.2335 3.1745,-2.00838 8.44338,-2.351 14.20163,-2.351 5.64412,0 10.435,2.74362 13.41212,6.33612 2.6635,3.21413 3.81438,7.35163 3.81438,6.86163 0,-0.49038 0.69412,-2.9275 0.67425,-5.4705 -0.0223,-2.83925 -0.75863,-5.78475 -0.75863,-5.78475"
       style="fill:#000000;fill-opacity:1;fill-rule:evenodd;stroke:none"
       id="path3532"
       inkscape:connector-curvature="0" />
    <path
       d="m 398.58983,361.3986 c -0.33512,2.44888 -2.78425,5.28738 -4.14137,6.06476 l -1.58463,0.90749 c -1.35737,0.77738 -0.58749,1.95876 1.1885,1.95876 1.77588,0 3.68213,-0.89613 4.14138,-2.39138 l 0.72425,-2.13175 0.101,-0.55512 c 0,0 0.007,-0.26513 -0.005,-0.56275 -0.0531,-1.32488 -0.22775,-4.72675 -0.42413,-3.29 l 3.8e-4,0 z"
       style="fill:#000000;fill-opacity:1;fill-rule:evenodd;stroke:none"
       id="path3534"
       inkscape:connector-curvature="0" />
    <path
       d="m 401.75371,367.82723 c -0.92975,1.119 -2.481,1.65762 -2.481,1.65762 l 0.36,0.80225 c 0.66288,1.47713 0.63525,4.39863 1.78575,4.39863 1.15088,0 1.17637,-1.55588 2.36937,-4.39863 0.77075,-1.8365 0.49963,-4.77187 0.73251,-7.17237 0.1545,-1.59175 -1.88188,3.6475 -2.76663,4.71225 l 0,2.5e-4 z"
       style="fill:#000000;fill-opacity:1;fill-rule:evenodd;stroke:none"
       id="path3536"
       inkscape:connector-curvature="0" />
    <path
       d="m 408.27971,370.37523 c -1.29925,1.0815 -1.62988,1.361 -3.76863,1.60125 l 0,0.56663 c 0,1.564 0.88725,4.2495 2.4955,4.2495 1.60875,0 2.96901,-2.72313 3.31051,-4.2495 l 1.42587,-6.37263 c 0.34162,-1.5265 -2.22662,3.1765 -3.46288,4.20475 l -3.7e-4,0 z"
       style="fill:#000000;fill-opacity:1;fill-rule:evenodd;stroke:none"
       id="path3538"
       inkscape:connector-curvature="0" />
    <path
       d="m 410.70409,376.41773 c -1.519,0.74162 -1.90625,0.93463 -4.0415,0.65938 l -0.13426,0.55062 c -0.37212,1.51937 -0.1485,4.33838 1.41376,4.72113 1.56224,0.38224 3.53087,-1.93926 4.22537,-3.34101 l 2.90025,-5.85137 c 0.69437,-1.40138 -2.91838,2.55612 -4.36363,3.26125"
       style="fill:#000000;fill-opacity:1;fill-rule:evenodd;stroke:none"
       id="path3540"
       inkscape:connector-curvature="0" />
    <path
       d="m 390.67158,398.93323 c -8.89862,1.20825 -18.19374,0.51625 -17.5985,0.74125 1.14488,0.43237 8.56413,1.97575 17.39026,0.95962 8.826,-1.01624 15.28187,-4.83137 15.14687,-6.27099 -0.135,-1.43926 -6.13025,3.37462 -14.93862,4.57012"
       style="fill:#000000;fill-opacity:1;fill-rule:evenodd;stroke:none"
       id="path3542"
       inkscape:connector-curvature="0" />
    <g
       id="g3544"
       transform="matrix(1.25,0,0,-1.25,165.16246,777.73973)">
      <g
         id="g3546"
         clip-path="url(#clipPath3548)">
        <path
           d="m 118.5126,325.1327 c 5.5139,0 9.9839,-4.4696 9.9839,-9.9839 0,-5.5139 -4.47,-9.9836 -9.9839,-9.9836 -5.514,0 -9.9839,4.4697 -9.9839,9.9836 0,5.5143 4.4699,9.9839 9.9839,9.9839"
           style="fill:url(#linearGradient3552);fill-rule:evenodd;stroke:none"
           id="path3558"
           inkscape:connector-curvature="0" />
      </g>
    </g>
    <g
       id="g3560"
       transform="matrix(1.25,0,0,-1.25,165.16246,777.73973)">
      <g
         id="g3562"
         clip-path="url(#clipPath3564)">
        <path
           d="m 177.1061,324.5658 c -5.5139,0 -9.9839,-4.4697 -9.9839,-9.9839 0,-5.514 4.47,-9.9836 9.9839,-9.9836 5.5142,0 9.9839,4.4696 9.9839,9.9836 0,5.5142 -4.4697,9.9839 -9.9839,9.9839"
           style="fill:url(#linearGradient3568);fill-rule:evenodd;stroke:none"
           id="path3574"
           inkscape:connector-curvature="0" />
      </g>
    </g>
    <path
       d="m 313.30321,377.70785 c 3.36675,0 6.09588,2.729 6.09588,6.09588 0,3.3665 -2.72913,6.0955 -6.09588,6.0955 -3.3665,0 -6.096,-2.729 -6.096,-6.0955 0,-3.36688 2.7295,-6.09588 6.096,-6.09588"
       style="fill:#000000;fill-opacity:1;fill-rule:evenodd;stroke:none"
       id="path3576"
       inkscape:connector-curvature="0" />
    <path
       d="m 386.54508,378.41648 c -3.3665,0 -6.09549,2.729 -6.09549,6.09587 0,3.3665 2.72899,6.09563 6.09549,6.09563 3.36688,0 6.09588,-2.72912 6.09588,-6.09563 0,-3.36687 -2.729,-6.09587 -6.09588,-6.09587"
       style="fill:#000000;fill-opacity:1;fill-rule:evenodd;stroke:none"
       id="path3578"
       inkscape:connector-curvature="0" />
    <path
       d="m 317.51434,376.11223 c 1.43225,0 2.59337,1.16112 2.59337,2.593 0,1.43225 -1.16112,2.59337 -2.59338,2.59337 -1.43212,0 -2.593,-1.16112 -2.593,-2.59337 0,-1.43188 1.16088,-2.593 2.593,-2.593"
       style="fill:#ffffff;fill-opacity:1;fill-rule:evenodd;stroke:none"
       id="path3580"
       inkscape:connector-curvature="0" />
    <path
       d="m 390.58559,376.82086 c -1.43225,0 -2.59338,1.16124 -2.59338,2.593 0,1.43225 1.16113,2.59337 2.59338,2.59337 1.43212,0 2.59299,-1.16112 2.59299,-2.59337 0,-1.43175 -1.16087,-2.593 -2.59299,-2.593"
       style="fill:#ffffff;fill-opacity:1;fill-rule:evenodd;stroke:none"
       id="path3582"
       inkscape:connector-curvature="0" />
    <path
       d="m 313.10471,390.65861 c 3.42788,0 6.47262,-1.86163 6.47262,0.15512 0,2.01725 -2.77875,3.65213 -6.20649,3.65213 -3.42813,0 -6.20676,-1.63488 -6.20676,-3.65213 0,-2.01675 2.51288,-0.15512 5.94063,-0.15512"
       style="fill:#cc9933;fill-opacity:1;fill-rule:evenodd;stroke:none"
       id="path3584"
       inkscape:connector-curvature="0" />
    <path
       d="m 386.74359,391.36723 c -3.42788,0 -6.47263,-1.86163 -6.47263,0.15525 0,2.01712 2.779,3.652 6.20688,3.652 3.42774,0 6.20637,-1.63488 6.20637,-3.652 0,-2.01688 -2.5125,-0.15525 -5.94062,-0.15525"
       style="fill:#cc9933;fill-opacity:1;fill-rule:evenodd;stroke:none"
       id="path3586"
       inkscape:connector-curvature="0" />
    <path
       d="m 276.00308,290.43398 c 76.60951,-7.29062 138.813,-5.299 212.21363,0 6.28237,20.778 7.07813,40.93625 0,60.204 -74.12562,-2.16212 -148.52125,-3.387 -224.25375,0 -2.91475,-20.06788 5.20263,-46.93038 12.04012,-60.204 z"
       style="fill:#990000;fill-opacity:1;fill-rule:evenodd;stroke:#000000;stroke-width:3.54325008;stroke-linecap:butt;stroke-linejoin:miter;stroke-miterlimit:22.92558479;stroke-dasharray:none;stroke-opacity:1"
       id="path3588"
       inkscape:connector-curvature="0" />
    <path
       d="m 346.41858,425.3876 c 5.39326,0 9.66438,-2.71137 9.66438,-0.81675 0,1.89463 -4.37175,5.60913 -9.765,5.60913 -5.39325,0 -9.765,-3.7145 -9.765,-5.60913 0,-1.89462 4.47275,0.81675 9.86562,0.81675"
       style="fill:#deaa87;fill-opacity:1;fill-rule:evenodd;stroke:none"
       id="path3590"
       inkscape:connector-curvature="0" />
    <path
       d="m 349.10509,456.33273 c 8.18962,0 14.676,-2.71138 14.676,-0.81675 0,1.89462 -6.63901,5.60913 -14.82901,5.60913 -8.18999,0 -14.82912,-3.71451 -14.82912,-5.60913 0,-1.89462 6.79212,0.81675 14.98213,0.81675"
       style="fill:#deaa87;fill-opacity:1;fill-rule:evenodd;stroke:none"
       id="path3592"
       inkscape:connector-curvature="0" />
    <path
       d="m 349.22846,445.7386 c 14.7925,0 26.50812,-2.71137 26.50812,-0.81675 0,1.89463 -11.99162,5.609 -26.7845,5.609 -14.793,0 -26.78462,-3.71437 -26.78462,-5.609 0,-1.89462 12.268,0.81675 27.061,0.81675"
       style="fill:#996633;fill-opacity:1;fill-rule:evenodd;stroke:none"
       id="path3594"
       inkscape:connector-curvature="0" />
    <path
       d="m 414.23496,391.87648 c 1.8305,0 3.31412,1.17812 3.31412,2.63125 0,1.45337 -1.48362,2.63163 -3.31412,2.63163 -1.83012,0 -3.314,-1.17826 -3.314,-2.63163 0,-1.45313 1.48388,-2.63125 3.314,-2.63125"
       style="fill:#f3e1d5;fill-opacity:1;fill-rule:evenodd;stroke:none"
       id="path3596"
       inkscape:connector-curvature="0" />
    <path
       d="m 291.40834,390.58273 c 1.83049,0 3.31412,1.17812 3.31412,2.63162 0,1.45313 -1.48363,2.63126 -3.31412,2.63126 -1.83013,0 -3.31401,-1.17813 -3.31401,-2.63126 0,-1.4535 1.48388,-2.63162 3.31401,-2.63162"
       style="fill:#f3e1d5;fill-opacity:1;fill-rule:evenodd;stroke:none"
       id="path3598"
       inkscape:connector-curvature="0" />
    <path
       d="m 397.62046,418.4271 c 15.76162,-6.351 30.53013,-14.10725 41.81587,-24.418"
       style="fill:none;stroke:#ff6600;stroke-width:7.0866251;stroke-linecap:butt;stroke-linejoin:miter;stroke-miterlimit:22.92558479;stroke-dasharray:none;stroke-opacity:1"
       id="path3600"
       inkscape:connector-curvature="0" />
    <path
       d="m 306.73746,416.52823 c -7.103,-3.36712 -13.87,-7.59075 -19.67075,-13.27963 m 19.67075,26.65313 c -7.47387,-3.54287 -14.57537,-8.03475 -20.57113,-14.18312 m 20.57113,27.55662 c -7.16325,-3.39587 -13.98475,-7.663 -19.81812,-13.42512"
       style="fill:none;stroke:#ff6600;stroke-width:7.0866251;stroke-linecap:butt;stroke-linejoin:miter;stroke-miterlimit:22.92558479;stroke-dasharray:none;stroke-opacity:1"
       id="path3602"
       inkscape:connector-curvature="0" />
    <path
       d="m 397.62046,431.80061 c 15.76162,-6.35101 30.53013,-14.10726 41.81587,-24.41801"
       style="fill:none;stroke:#ff6600;stroke-width:7.0866251;stroke-linecap:butt;stroke-linejoin:miter;stroke-miterlimit:22.92558479;stroke-dasharray:none;stroke-opacity:1"
       id="path3604"
       inkscape:connector-curvature="0" />
    <path
       d="m 397.62046,445.1741 c 15.76162,-6.351 30.53013,-14.10724 41.81587,-24.418"
       style="fill:none;stroke:#ff6600;stroke-width:7.0866251;stroke-linecap:butt;stroke-linejoin:miter;stroke-miterlimit:22.92558479;stroke-dasharray:none;stroke-opacity:1"
       id="path3606"
       inkscape:connector-curvature="0" />
    <path
       d="m 277.64721,301.10361 c 69.27775,-7.28925 138.89375,-4.62826 208.71,0"
       style="fill:none;stroke:#ff0000;stroke-width:7.0866251;stroke-linecap:butt;stroke-linejoin:miter;stroke-miterlimit:22.92558479;stroke-dasharray:none;stroke-opacity:1"
       id="path3608"
       inkscape:connector-curvature="0" />
    <path
       d="m 268.13909,338.59035 c 72.43375,-7.28925 145.22137,-4.62825 218.21812,0"
       style="fill:none;stroke:#ff0000;stroke-width:7.0866251;stroke-linecap:butt;stroke-linejoin:miter;stroke-miterlimit:22.92558479;stroke-dasharray:none;stroke-opacity:1"
       id="path3610"
       inkscape:connector-curvature="0" />
    <path
       d="m 360.80371,266.33098 c 7.06,-16.567 44.50113,-13.51912 61.64213,-5.986 -14.64938,0.89075 -16.37388,5.4765 -24.56075,8.21475 0,0 42.24012,15.2625 44.26625,15.66787 2.026,0.40538 -79.52388,-5.94149 -79.52388,-5.94149 0,0 -2.84287,-6.62138 -1.82375,-11.95513 z m -72.304,19.3005 c 4.74025,-12.78037 42.0345,-30.2765 56.8265,-29.80288 14.79187,0.47376 6.3885,11.40388 0.95837,12.84138 -26.59562,1.721 -42.43325,7.31862 -57.78487,16.9615"
       style="fill:#7b4815;fill-opacity:1;fill-rule:evenodd;stroke:none"
       id="path3612"
       inkscape:connector-curvature="0" />
    <path
       d="m 201.07246,510.65448 c 11.58025,4.27537 29.621,13.08075 31.1035,30.02662 1.4825,16.9455 -13.80612,30.295 -25.73463,31.3385 -11.929,1.0435 -22.80087,-11.84737 -24.28337,-28.793 -1.4825,-16.94549 7.33425,-36.84787 18.9145,-32.57212 z"
       style="fill:#e9c6af;fill-opacity:1;fill-rule:evenodd;stroke:#000000;stroke-width:3.54325008;stroke-linecap:butt;stroke-linejoin:miter;stroke-miterlimit:22.92558479;stroke-dasharray:none;stroke-opacity:1"
       id="path3614"
       inkscape:connector-curvature="0" />
    <g
       id="g3616"
       transform="matrix(1.25,0,0,-1.25,165.16246,777.73973)">
      <path
         d="m 18.9079,190.1755 c 0.3444,-3.6776 10.3272,-3.1918 10.0676,0.4927 -6.4585,91.6659 30.8038,96.3898 41.4201,147.388 1.26,6.0519 -2.073,13.5779 -7.6473,14.845 -4.1312,0.9391 -8.5343,-4.3965 -9.5712,-8.8532 -0.7274,-3.1277 2.8553,-6.9276 5.7719,-7.4792 2.2459,-0.4243 2.2867,5.0497 4.5088,5.5347 1.5276,0.3333 3.636,-2.2354 3.1595,-3.8608 C 51.999,288.3898 10.0035,285.2717 18.9079,190.1755 Z"
         style="fill:#cc9933;fill-opacity:1;fill-rule:evenodd;stroke:#000000;stroke-width:2.83459997;stroke-linecap:butt;stroke-linejoin:miter;stroke-miterlimit:22.92558479;stroke-dasharray:none;stroke-opacity:1"
         id="path3618"
         inkscape:connector-curvature="0" />
      <path
         d="m 19.4258,184.2559 c -0.2993,3.6817 9.616,4.9366 10.0001,1.2629 9.5573,-91.3947 47.0738,-89.5765 66.3846,-137.9563 2.2918,-5.741 0.3163,-13.7313 -4.9533,-15.9471 -3.9056,-1.6424 -9.1684,2.8477 -10.963,7.0563 -1.2597,2.9539 1.6087,7.3184 4.3855,8.3678 2.1379,0.8082 3.1286,-4.5757 5.4011,-4.6672 1.5625,-0.0632 3.1927,2.8326 2.4409,4.3506 C 69.069,93.28 27.1698,89.0583 19.4258,184.2559 Z"
         style="fill:#cc9933;fill-opacity:1;fill-rule:evenodd;stroke:#000000;stroke-width:2.83459997;stroke-linecap:butt;stroke-linejoin:miter;stroke-miterlimit:22.92558479;stroke-dasharray:none;stroke-opacity:1"
         id="path3620"
         inkscape:connector-curvature="0" />
      <path
         d="m 17.6624,218.0126 9.3665,0.8195 c 2.132,0.1865 4.028,-1.4046 4.2146,-3.5362 l 5.0581,-57.8132 c 0.1865,-2.1319 -1.4048,-4.028 -3.5365,-4.2145 l -9.3668,-0.8195 c -2.1317,-0.1866 -4.028,1.4045 -4.2143,3.5362 l -5.0581,57.8131 c -0.1865,2.132 1.4046,4.0281 3.5365,4.2146 z"
         style="fill:#990000;fill-opacity:1;fill-rule:evenodd;stroke:#000000;stroke-width:2.83459997;stroke-linecap:butt;stroke-linejoin:miter;stroke-miterlimit:22.92558479;stroke-dasharray:none;stroke-opacity:1"
         id="path3622"
         inkscape:connector-curvature="0" />
      <path
         d="M 62.763,336.619 70.0257,333.8972 94.496,54.2001 88.3996,48.3545"
         style="fill:none;stroke:#663300;stroke-width:2.83459997;stroke-linecap:butt;stroke-linejoin:miter;stroke-miterlimit:22.92558479;stroke-dasharray:none;stroke-opacity:1"
         id="path3624"
         inkscape:connector-curvature="0" />
    </g>
    <g
       id="g3626"
       transform="matrix(1.25,0,0,-1.25,165.16246,777.73973)">
      <path
         d="m 8.5547,208.0222 12.8302,1.1225 c 3.2935,0.288 6.3609,-3.7409 6.817,-8.9535 l 2.7638,-31.5913 c 0.4561,-5.2126 -1.8649,-9.7135 -5.1585,-10.0015 L 12.977,157.4759 c -3.2936,-0.288 -6.3609,3.7412 -6.817,8.9538 -0.6407,7.325 -2.5762,3.7806 -4.4082,13.4711 -0.3257,1.7226 -0.3455,2.0336 -0.3314,3.7879 0.0499,6.2612 2.0713,9.8654 1.9758,14.3323 -0.1114,5.214 1.8652,9.7129 5.1585,10.0012 z"
         style="fill:#e9c6af;fill-opacity:1;fill-rule:evenodd;stroke:#000000;stroke-width:2.83459997;stroke-linecap:butt;stroke-linejoin:miter;stroke-miterlimit:22.92558479;stroke-dasharray:none;stroke-opacity:1"
         id="path3628"
         inkscape:connector-curvature="0" />
      <path
         d="m 13.0711,192.8092 14.9712,0.9201"
         style="fill:none;stroke:#000000;stroke-width:2.83459997;stroke-linecap:butt;stroke-linejoin:miter;stroke-miterlimit:22.92558479;stroke-dasharray:none;stroke-opacity:1"
         id="path3630"
         inkscape:connector-curvature="0" />
      <path
         d="m 14.7283,173.8695 14.9711,0.9201"
         style="fill:none;stroke:#000000;stroke-width:2.83459997;stroke-linecap:butt;stroke-linejoin:miter;stroke-miterlimit:22.92558479;stroke-dasharray:none;stroke-opacity:1"
         id="path3632"
         inkscape:connector-curvature="0" />
    </g>
    <g
       id="g3634"
       transform="matrix(1.25,0,0,-1.25,165.16246,777.73973)">
      <g
         id="g3636">
        <path
           d="m 289.0151,95.5831 7.105,-12.9679 45.3453,-12.1502 -7.1051,12.968 -45.3452,12.1501 z"
           style="fill:#ffffff;fill-opacity:1;fill-rule:evenodd;stroke:#000000;stroke-width:2.83459997;stroke-linecap:butt;stroke-linejoin:miter;stroke-miterlimit:22.92558479;stroke-dasharray:none;stroke-opacity:1"
           id="path3638"
           inkscape:connector-curvature="0" />
        <path
           d="m 106.452,143.6513 1.9894,7.4243 228.8987,-61.3333 -1.9893,-7.4242 -228.8988,61.3332 z"
           style="fill:#cc9933;fill-opacity:1;fill-rule:evenodd;stroke:#000000;stroke-width:2.83459997;stroke-linecap:butt;stroke-linejoin:miter;stroke-miterlimit:22.92558479;stroke-dasharray:none;stroke-opacity:1"
           id="path3640"
           inkscape:connector-curvature="0" />
        <path
           d="m 291.3293,98.9824 12.6374,7.6779 45.3453,-12.1501 -12.6374,-7.6779 -45.3453,12.1501 z"
           style="fill:#e6e6e6;fill-opacity:1;fill-rule:evenodd;stroke:#000000;stroke-width:2.83459997;stroke-linecap:butt;stroke-linejoin:miter;stroke-miterlimit:22.92558479;stroke-dasharray:none;stroke-opacity:1"
           id="path3642"
           inkscape:connector-curvature="0" />
      </g>
      <path
         d="m 85.2075,152.8948 10.7504,1.4763 10.7501,1.4763 15.2161,-5.7413 15.2161,-5.7413 -1.3465,-5.0247 -1.3462,-5.0247 -16.0483,2.636 -16.0481,2.6359 -8.5717,6.6538 -8.5719,6.6537 z"
         style="fill:#b3b3b3;fill-opacity:1;fill-rule:evenodd;stroke:#000000;stroke-width:2.83459997;stroke-linecap:butt;stroke-linejoin:miter;stroke-miterlimit:22.92558479;stroke-dasharray:none;stroke-opacity:1"
         id="path3644"
         inkscape:connector-curvature="0" />
      <path
         d="m 90.8906,150.7317 37.7405,-10.1126 -1.0046,-3.7488 -11.9727,1.9667 -11.9729,1.9664 -6.395,4.9643 -6.3953,4.964 z"
         style="fill:#e6e6e6;fill-opacity:1;fill-rule:evenodd;stroke:none"
         id="path3646"
         inkscape:connector-curvature="0" />
      <path
         d="m 128.2595,133.905 3.727,13.9093 24.6311,-6.5999 -3.727,-13.9093 -24.6311,6.5999 z"
         style="fill:#ff0000;fill-opacity:1;fill-rule:evenodd;stroke:#000000;stroke-width:2.83459997;stroke-linecap:butt;stroke-linejoin:miter;stroke-miterlimit:22.92558479;stroke-dasharray:none;stroke-opacity:1"
         id="path3648"
         inkscape:connector-curvature="0" />
      <path
         d="m 225.612,125.981 c 6.3828,7.5356 17.9385,18.6885 31.083,15.1665 21.8699,-5.8601 17.5054,-28.5846 13.3234,-44.1927 -0.8558,-3.1935 -5.6911,-4.6979 -10.7455,-3.3435 -7.1023,1.9029 -4.4337,-1.1279 -14.1662,0.4649 -1.7303,0.2832 -2.029,0.3711 -3.6728,0.9842 -5.8666,2.1884 -8.5621,5.3204 -12.7922,6.7587 -4.938,1.6786 -8.4895,5.0745 -7.6337,8.268 l 2.9049,10.8417 c -0.1142,1.7986 0.4008,3.5192 1.6991,5.0522 z"
         style="fill:#e9c6af;fill-opacity:1;fill-rule:evenodd;stroke:#000000;stroke-width:2.83459997;stroke-linecap:butt;stroke-linejoin:miter;stroke-miterlimit:22.92558479;stroke-dasharray:none;stroke-opacity:1"
         id="path3650"
         inkscape:connector-curvature="0" />
    </g>
  </g>
</svg>
